<?xml version="1.0" standalone="no"?>
<!DOCTYPE svg PUBLIC "-//W3C//DTD SVG 20010904//EN"
 "http://www.w3.org/TR/2001/REC-SVG-20010904/DTD/svg10.dtd">
<svg version="1.0" xmlns="http://www.w3.org/2000/svg"
 width="512.000000pt" height="512.000000pt" viewBox="0 0 512.000000 512.000000"
 preserveAspectRatio="xMidYMid meet">
<metadata>
Created by potrace 1.11, written by Peter Selinger 2001-2013
</metadata>
<g transform="translate(0.000000,512.000000) scale(0.100000,-0.100000)"
fill="#000000" stroke="none">
<path d="M1375 4685 c1 -5 4 -17 7 -25 3 -8 13 -42 22 -75 16 -59 38 -140 78
-285 22 -81 68 -250 100 -370 11 -41 24 -78 29 -81 6 -3 435 -6 955 -6 l946 0
8 21 c5 12 26 82 46 156 20 74 52 189 71 255 18 66 35 129 37 140 2 11 20 77
40 147 20 69 36 128 36 130 0 2 -535 3 -1189 3 -800 0 -1188 -3 -1186 -10z"/>
<path d="M935 4467 c-231 -139 -386 -230 -405 -240 -8 -4 -27 -15 -42 -25 -15
-9 -92 -55 -170 -101 -317 -187 -313 -184 -313 -222 l0 -34 663 -1 c651 -1
662 -1 656 19 -3 10 -17 58 -30 105 -13 48 -32 116 -42 152 -10 36 -43 152
-73 258 -30 105 -58 192 -64 192 -5 -1 -87 -47 -180 -103z"/>
<path d="M3987 4498 c-20 -64 -86 -290 -133 -448 -18 -63 -39 -136 -47 -161
l-14 -46 663 0 664 0 0 34 c0 18 -4 33 -9 33 -7 0 -682 390 -761 439 -23 15
-333 196 -341 199 -3 1 -13 -21 -22 -50z"/>
<path d="M10 3621 c0 -7 23 -40 68 -96 4 -5 23 -32 42 -60 19 -27 40 -56 47
-65 6 -8 37 -49 67 -90 31 -41 59 -80 63 -85 33 -42 70 -93 78 -107 6 -9 82
-114 170 -233 88 -120 200 -272 249 -339 49 -66 103 -140 120 -163 17 -23 39
-52 48 -65 52 -70 98 -134 105 -143 8 -10 142 -192 169 -230 8 -11 49 -67 91
-125 74 -100 315 -429 350 -478 30 -42 232 -317 241 -327 4 -5 63 -86 132
-180 191 -262 290 -395 295 -395 2 0 0 12 -5 28 -35 112 -42 137 -46 151 -2 9
-22 77 -44 151 -23 74 -43 142 -45 150 -7 32 -117 406 -125 425 -4 11 -29 94
-55 185 -26 91 -57 199 -70 240 -13 41 -26 86 -29 100 -3 14 -33 117 -67 230
-33 113 -62 212 -64 220 -2 8 -22 76 -44 150 -23 74 -53 176 -67 225 -14 50
-34 117 -44 150 -42 139 -112 374 -114 387 -1 7 -12 44 -24 81 -12 38 -20 73
-17 77 3 5 1 11 -5 15 -5 3 -14 25 -20 48 -6 23 -20 72 -31 110 l-20 67 -699
0 c-386 0 -700 -4 -700 -9z"/>
<path d="M1732 3468 c58 -196 79 -269 108 -368 12 -41 30 -102 40 -135 10 -33
28 -91 39 -130 11 -38 62 -209 112 -380 50 -170 99 -339 109 -375 10 -36 33
-117 53 -180 19 -63 37 -124 40 -135 3 -11 46 -159 97 -330 51 -170 96 -323
100 -340 5 -16 16 -54 25 -84 9 -30 18 -62 20 -70 2 -9 20 -68 39 -131 20 -63
36 -123 36 -132 0 -47 20 -6 54 115 21 72 44 150 51 172 7 22 38 128 70 235
76 260 199 677 241 820 19 63 37 122 39 130 2 8 20 71 40 140 21 69 48 161 60
205 13 44 48 163 78 265 30 102 71 241 92 310 20 69 57 195 82 280 25 85 54
183 64 218 l18 62 -878 0 -878 0 49 -162z"/>
<path d="M3581 3172 c-143 -485 -328 -1114 -360 -1222 -11 -36 -63 -213 -116
-395 -53 -181 -109 -373 -125 -425 -16 -52 -56 -189 -90 -305 -34 -116 -72
-245 -86 -287 -13 -42 -24 -83 -24 -89 0 -11 121 149 358 473 163 223 795
1085 871 1188 43 58 203 275 355 483 152 209 281 384 287 390 5 7 79 109 165
227 86 118 187 256 224 305 36 50 70 96 74 103 6 9 -136 12 -696 12 l-703 0
-134 -458z"/>
</g>
</svg>
